<?xml version="1.0" encoding="UTF-8"?>
<svg xmlns="http://www.w3.org/2000/svg" version="1.1" viewBox="0 0 100 100">
  <!-- Generator: Adobe Illustrator 28.7.1, SVG Export Plug-In . SVG Version: 1.2.0 Build 142)  -->
  <g>
    <g id="Layer_1">
      <g>
        <path d="M100,78.15c-14.36,7.34-27.82,15.39-42.13,20.95-5.67,2.2-13.5-.11-19.86-2.13-17.6-5.59-17.5-5.96-17.49-25.41,0-11.37.9-12.24,11.37-10.68,2.1.31,4.42.55,6.17,1.67,8.45,5.44,17.18,8.96,27.36,7.66,1.35-.17,4.46,3.5,4.34,5.17-.14,1.87-2.93,4.8-4.78,5.01-5.87.66-11.86.14-17.79.35-1.93.07-3.84.95-5.76,1.46.09.84.18,1.69.28,2.53,9,0,18.01.32,26.98-.26,1.9-.12,4.9-3.37,5.19-5.52,1.1-8.24,7.5-7.63,12.33-8.84,5.45-1.37,10.29.65,13.8,8.05Z"/>
        <path d="M.04,75.36c0-3.05-.02-6.1,0-9.15.03-9.48,3.14-12.21,11.81-9.62,1.69.5,3.9,3.22,3.97,5.01.4,9.63.12,19.3.22,28.95.07,6.58-4.33,5.46-7.99,5.44-3.64-.01-8.13,1.2-8.02-5.4.08-5.08.02-10.16,0-15.24Z"/>
        <path d="M45.21,47.53c-1.88-9.14-5.15-16.72-14.81-17.84-.71-.08-1.96-2.16-1.72-2.74.46-1.13,1.68-2.44,2.77-2.66,7.2-1.46,10.75-6.61,12.76-13.6.35-1.21,1.48-2.16,2.24-3.22.82,1,2.07,1.86,2.39,3.01,2.03,7.32,5.71,12.62,13.3,13.86.91.15,2.17,1.4,2.33,2.32.16.91-.8,2.89-1.42,2.96-9.42,1.12-12.44,8.75-15.25,16.69-.11.32-.81.4-2.59,1.22Z"/>
        <path d="M76.44,43.94c3.6-3.95,7.33-8.05,10.7-11.76,3.21,3.48,7.18,7.81,10.74,11.67-3.4,3.67-7.28,7.85-10.73,11.56-3.54-3.79-7.45-7.98-10.72-11.48Z"/>
        <path d="M80.56,13.52c-2.77-3.13-5.54-6.26-8.3-9.39-.1,1.9-.2,3.81-.3,5.71,2.79-3.09,5.58-6.19,8.37-9.28-1.43-.18-2.86-.37-4.29-.55,2.64,3.42,5.28,6.84,7.93,10.26.09-2.01.19-4.02.28-6.03-2.82,2.96-5.65,5.91-8.47,8.87,1.59.14,3.19.28,4.78.41Z"/>
      </g>
    </g>
  </g>
</svg>