<?xml version="1.0" encoding="UTF-8"?>
<svg xmlns="http://www.w3.org/2000/svg" version="1.1" viewBox="0 0 100 100">
  <!-- Generator: Adobe Illustrator 28.7.1, SVG Export Plug-In . SVG Version: 1.2.0 Build 142)  -->
  <g>
    <g id="Layer_1">
      <path d="M68.31,15.67c-3.48,5.81-6.88,8.41-14.03,5.04-10.05-4.74-20.66-3.57-30.24,2.26-1.99,1.21-4.24,4.45-4,6.47,1.46,12.53,3.6,24.98,5.36,36.41,17.86-17.84,35.84-35.79,53.77-53.7-.77-2.27-2-5.86-3.22-9.44C79.91,1.74,83.87-.04,87.82,0c3.91.04,10.74,1.24,11.16,3.09,1.37,6.05,1.36,12.85-.01,18.93-.92,4.08-5.32,3.04-8.16.4-2.23-2.07-4-3.99-7.18-1.03-3.32,3.09-1.52,5.23.31,7.98,12.64,18.97,13.09,37.82-.44,56.72-1.28,1.78-.18,5.11-.74,7.6-.47,2.09-1.41,4.3-2.8,5.87-.62.7-3.82.54-4.22-.17-9.05-15.8-25.59-11.87-39.29-14.56-22.06-4.34-17.57.59-21.13-21.06-1.43-8.73-2.86-17.46-3.99-26.23-.48-3.77-.95-6.88-5.38-8.17-1.86-.54-3.55-2.52-4.72-4.26-.88-1.31-1.64-3.79-.98-4.82,1-1.57,4.12-3.68,4.86-3.21,5.62,3.54,8.93-.66,12.67-3.25,15.32-10.61,40.25-8.94,50.53,1.85ZM33.07,74.41c12.52,1.89,24.99,3.86,37.5,5.54,1.58.21,3.99-.55,4.96-1.73,10.09-12.3,7.7-36.77-3.06-43.16-13.1,13.08-26.01,25.97-39.4,39.34Z"/>
    </g>
  </g>
</svg>