<?xml version="1.0" encoding="UTF-8"?>
<svg xmlns="http://www.w3.org/2000/svg" version="1.1" viewBox="0 0 100 100">
  <!-- Generator: Adobe Illustrator 28.7.1, SVG Export Plug-In . SVG Version: 1.2.0 Build 142)  -->
  <g>
    <g id="Layer_1">
      <path d="M50.68.01c12.39,0,24.78-.04,37.18.01,9.39.04,12.58,2.62,12.1,11.78-.85,16.12-.3,32.79-4.36,48.15-5.45,20.65-21.15,33.46-41.58,39.7-2.55.78-5.72.6-8.33-.11C19.38,92.33.48,67.74.12,40.43c-.12-9.33,0-18.67.02-28C.15,2.12,2.21.06,12.78.02c12.63-.05,25.26-.01,37.89-.01ZM30.73,49.66c5.42.52,9.09.87,13.53,1.3-3.33,9.02-6.43,17.4-9.53,25.77.63.34,1.25.68,1.88,1.02,10.75-11.85,21.98-23.29,33.14-37.33-6.48-.37-10.21-.58-14.74-.84,3.76-7.51,7.25-14.48,10.74-21.45-.51-.69-1.02-1.38-1.53-2.07-5.35.89-13.13-.13-15.6,3.03-6.89,8.83-11.59,19.38-17.88,30.56Z"/>
    </g>
  </g>
</svg>