<?xml version="1.0" encoding="UTF-8"?>
<svg xmlns="http://www.w3.org/2000/svg" version="1.1" viewBox="0 0 100 100">
  <!-- Generator: Adobe Illustrator 28.7.1, SVG Export Plug-In . SVG Version: 1.2.0 Build 142)  -->
  <g>
    <g id="Layer_1">
      <g>
        <path d="M100,79.22c-13.95,6.97-26.88,14.76-40.77,19.76-6.35,2.29-15.08.55-21.88-1.88-20.54-7.36-16.42-1.09-16.79-23.38-.19-11.4,1.27-12.54,12.21-10.63,1.63.28,3.48.3,4.81,1.14,8.42,5.29,17.23,8.35,27.36,7.32,1.53-.15,3.43,3.59,5.16,5.53-2.02,1.5-3.94,4.06-6.09,4.3-5.63.62-11.37.07-17.06.3-1.87.07-3.7,1.08-5.55,1.67.12.74.25,1.48.37,2.23,9.02,0,18.06.31,27.05-.25,1.89-.12,4.85-3.27,5.14-5.35,1.17-8.32,8.08-7.29,12.98-8.53,5.11-1.29,9.65,1.22,13.05,7.79Z"/>
        <path d="M46.33,13.96c1.31,1.84,2.61,3.67,3.91,5.5.75-.16,1.49-.32,2.24-.47-.5-6.41-.99-12.82-1.49-19.17,11.01-.56,18.36,7.07,25.56,27.57,1.89-.93,3.75-1.85,5.64-2.79,3.82,12.63-.94,23.97-12.09,29.19-10.17,4.76-23.43.64-29.39-9.13-6.24-10.24-4.07-22.78,5.61-30.69ZM62.17,23.01c-8.71,5.14-12.39,11.87-10.57,19.18,1.4,5.63,5.46,7.64,10.79,6.96,5.05-.65,8.37-5.73,7.6-11.24-.71-5.05-3.33-7.28-8.81-5.15.37-3.58.66-6.39,1-9.74Z"/>
        <path d="M.05,76.79c0-2.91,0-5.82,0-8.74.02-8.92,1.8-10.49,10.31-9.67,4.03.39,5.85,2.14,5.74,6.47-.2,8.49-.26,16.99,0,25.48.2,6.26-3.69,6.39-7.95,6.34-4.08-.05-8.42.38-8.14-6.05.2-4.6.04-9.22.04-13.83Z"/>
      </g>
    </g>
  </g>
</svg>